<svg width="92" height="95" viewBox="0 0 92 95" fill="none" xmlns="http://www.w3.org/2000/svg">
<mask id="path-1-inside-1" fill="white">
<path fill-rule="evenodd" clip-rule="evenodd" d="M62.9037 44.9459L62.9886 43.4717C62.9518 40.4743 63.0673 38.9864 63.4172 36.1455C64.9942 39.7839 65.9558 43.6489 66.3175 47.7321C66.6575 49.0772 66.29 56.6213 66.394 56.717L64.136 57.2921L64.2187 52.6315L64.1343 52.4071C63.9795 49.718 63.559 47.2363 62.9037 44.9459ZM32.5797 9.31122V13.8051C33.2617 13.5363 33.9454 13.2762 34.6326 13.0225V19.5466L41.5368 21.9613C37.3589 30.21 35.4166 39.5055 35.7154 49.8422L44.8969 46.4829C43.9077 38.3289 43.9077 30.7149 46.8008 24.6491C50.7278 26.9251 54.1408 29.6166 56.8512 32.8701C57.3588 31.0255 57.9935 29.1929 58.7918 27.3772C56.4342 24.1246 53.4875 21.0855 49.9349 18.2679C55.551 7.83802 65.5525 4.09774 77.1428 2.929V0.801019C63.3433 2.26023 53.136 7.47739 45.9049 15.8031C41.9843 13.1214 37.3999 11.0977 32.5797 9.31122Z"/>
</mask>
<path fill-rule="evenodd" clip-rule="evenodd" d="M62.9037 44.9459L62.9886 43.4717C62.9518 40.4743 63.0673 38.9864 63.4172 36.1455C64.9942 39.7839 65.9558 43.6489 66.3175 47.7321C66.6575 49.0772 66.29 56.6213 66.394 56.717L64.136 57.2921L64.2187 52.6315L64.1343 52.4071C63.9795 49.718 63.559 47.2363 62.9037 44.9459ZM32.5797 9.31122V13.8051C33.2617 13.5363 33.9454 13.2762 34.6326 13.0225V19.5466L41.5368 21.9613C37.3589 30.21 35.4166 39.5055 35.7154 49.8422L44.8969 46.4829C43.9077 38.3289 43.9077 30.7149 46.8008 24.6491C50.7278 26.9251 54.1408 29.6166 56.8512 32.8701C57.3588 31.0255 57.9935 29.1929 58.7918 27.3772C56.4342 24.1246 53.4875 21.0855 49.9349 18.2679C55.551 7.83802 65.5525 4.09774 77.1428 2.929V0.801019C63.3433 2.26023 53.136 7.47739 45.9049 15.8031C41.9843 13.1214 37.3999 11.0977 32.5797 9.31122Z" fill="#3C75B4"/>
<path d="M62.9037 44.9459L61.6218 45.3126L61.5596 45.0951L61.5726 44.8693L62.9037 44.9459ZM62.9886 43.4717L64.3218 43.4554L64.3224 43.5019L64.3197 43.5484L62.9886 43.4717ZM63.4172 36.1455L62.0938 35.9825L62.6925 31.1207L64.6406 35.6153L63.4172 36.1455ZM66.3175 47.7321L65.0248 48.0589L64.9987 47.9557L64.9893 47.8497L66.3175 47.7321ZM66.394 56.717L67.2966 55.7357L69.1079 57.4017L66.7231 58.0091L66.394 56.717ZM64.136 57.2921L64.4651 58.5841L62.7719 59.0153L62.8029 57.2684L64.136 57.2921ZM64.2187 52.6315L65.4667 52.1623L65.5563 52.4006L65.5518 52.6552L64.2187 52.6315ZM64.1343 52.4071L62.8862 52.8763L62.8148 52.6863L62.8032 52.4837L64.1343 52.4071ZM32.5797 13.8051L33.0687 15.0456L31.2463 15.764V13.8051H32.5797ZM34.6326 13.0225L34.1708 11.7717L35.9659 11.1091V13.0225H34.6326ZM34.6326 19.5466L34.1924 20.8051L33.2992 20.4928V19.5466H34.6326ZM41.5368 21.9613L41.977 20.7028L43.4143 21.2054L42.7263 22.5638L41.5368 21.9613ZM35.7154 49.8422L36.1736 51.0943L34.4361 51.73L34.3827 49.8807L35.7154 49.8422ZM44.8969 46.4829L46.2205 46.3223L46.3478 47.3718L45.355 47.735L44.8969 46.4829ZM46.8008 24.6491L45.5974 24.0751L46.2194 22.7711L47.4694 23.4956L46.8008 24.6491ZM56.8512 32.8701L58.1368 33.2238L57.4599 35.6838L55.8268 33.7235L56.8512 32.8701ZM58.7918 27.3772L59.8713 26.5947L60.3201 27.2138L60.0123 27.9138L58.7918 27.3772ZM49.9349 18.2679L49.1064 19.3126L48.2316 18.6188L48.761 17.6358L49.9349 18.2679ZM77.1428 2.929H78.4762V4.13464L77.2766 4.2556L77.1428 2.929ZM77.1428 0.801019L77.0026 -0.524919L78.4762 -0.680737V0.801019H77.1428ZM45.9049 15.8031L46.9116 16.6774L46.1326 17.5743L45.1522 16.9036L45.9049 15.8031ZM61.5726 44.8693L61.6575 43.3951L64.3197 43.5484L64.2348 45.0225L61.5726 44.8693ZM61.6554 43.4881C61.6177 40.4197 61.7382 38.8708 62.0938 35.9825L64.7405 36.3084C64.3965 39.102 64.2859 40.5289 64.3218 43.4554L61.6554 43.4881ZM64.6406 35.6153C66.277 39.3908 67.272 43.3957 67.6456 47.6145L64.9893 47.8497C64.6397 43.902 63.7114 40.177 62.1938 36.6757L64.6406 35.6153ZM67.6101 47.4053C67.7407 47.922 67.7771 48.8147 67.7914 49.6678C67.8068 50.5893 67.7956 51.6799 67.7774 52.7166C67.7593 53.7447 67.7332 54.7643 67.7191 55.488C67.7118 55.8587 67.7076 56.1534 67.7081 56.3551C67.7084 56.459 67.7099 56.5195 67.7113 56.5471C67.7122 56.565 67.7119 56.544 67.7064 56.5041C67.7041 56.4875 67.6959 56.429 67.6749 56.353C67.6645 56.3151 67.6431 56.2438 67.6039 56.1583C67.573 56.0908 67.4845 55.9085 67.2966 55.7357L65.4914 57.6983C65.3018 57.524 65.2118 57.3393 65.1794 57.2685C65.1387 57.1797 65.1159 57.1042 65.104 57.0613C65.0803 56.975 65.0695 56.9029 65.0648 56.8691C65.0546 56.795 65.0503 56.726 65.0481 56.6831C65.0433 56.589 65.0418 56.4764 65.0415 56.3621C65.0409 56.1278 65.0456 55.8068 65.0529 55.4358C65.0678 54.6761 65.0928 53.7076 65.1111 52.6696C65.1292 51.6401 65.1397 50.5866 65.1251 49.7123C65.1178 49.2746 65.1044 48.8941 65.0838 48.5905C65.0736 48.4389 65.0621 48.3149 65.05 48.2176C65.044 48.1695 65.0384 48.1316 65.0334 48.1029C65.031 48.0888 65.0289 48.078 65.0273 48.0702C65.0257 48.0623 65.0248 48.0587 65.0248 48.0589L67.6101 47.4053ZM66.7231 58.0091L64.4651 58.5841L63.8069 56L66.0649 55.4249L66.7231 58.0091ZM62.8029 57.2684L62.8855 52.6079L65.5518 52.6552L65.4691 57.3157L62.8029 57.2684ZM62.9706 53.1008L62.8862 52.8763L65.3823 51.9379L65.4667 52.1623L62.9706 53.1008ZM62.8032 52.4837C62.6536 49.8865 62.2483 47.5025 61.6218 45.3126L64.1856 44.5792C64.8697 46.9701 65.3053 49.5496 65.4654 52.3304L62.8032 52.4837ZM33.913 9.31122V13.8051H31.2463V9.31122H33.913ZM32.0906 12.5647C32.7826 12.2919 33.4755 12.0284 34.1708 11.7717L35.0943 14.2734C34.4153 14.524 33.7407 14.7806 33.0687 15.0456L32.0906 12.5647ZM35.9659 13.0225V19.5466H33.2992V13.0225H35.9659ZM35.0727 18.288L41.977 20.7028L41.0967 23.2199L34.1924 20.8051L35.0727 18.288ZM42.7263 22.5638C38.6602 30.5917 36.7551 39.6627 37.0482 49.8036L34.3827 49.8807C34.0782 39.3483 36.0576 29.8283 40.3474 21.3589L42.7263 22.5638ZM35.2573 48.59L44.4387 45.2307L45.355 47.735L36.1736 51.0943L35.2573 48.59ZM43.5732 46.6435C42.579 38.4474 42.5306 30.5048 45.5974 24.0751L48.0043 25.2232C45.2847 30.9249 45.2364 38.2105 46.2205 46.3223L43.5732 46.6435ZM47.4694 23.4956C51.4994 25.8311 55.0438 28.6173 57.8757 32.0167L55.8268 33.7235C53.2379 30.6158 49.9563 28.019 46.1323 25.8027L47.4694 23.4956ZM55.5657 32.5164C56.0888 30.6151 56.7445 28.7208 57.5712 26.8406L60.0123 27.9138C59.2424 29.6649 58.6288 31.4358 58.1368 33.2238L55.5657 32.5164ZM57.7122 28.1597C55.4334 25.0158 52.5742 22.0629 49.1064 19.3126L50.7634 17.2233C54.4008 20.1081 57.4349 23.2334 59.8713 26.5947L57.7122 28.1597ZM48.761 17.6358C54.6845 6.63489 65.2327 2.7899 77.009 1.60239L77.2766 4.2556C65.8724 5.40558 56.4175 9.04115 51.1089 18.9L48.761 17.6358ZM75.8095 2.929V0.801019H78.4762V2.929H75.8095ZM77.283 2.12696C63.7668 3.55622 53.8891 8.64355 46.9116 16.6774L44.8982 14.9288C52.3828 6.31123 62.9198 0.964247 77.0026 -0.524919L77.283 2.12696ZM45.1522 16.9036C41.3644 14.3128 36.8984 12.3338 32.1163 10.5614L33.043 8.06099C37.9014 9.8616 42.6042 11.93 46.6577 14.7026L45.1522 16.9036Z" fill="#2D2C2E" mask="url(#path-1-inside-1)"/>
<path d="M30.5243 44.0241C30.5359 36.2001 29.5001 29.1689 26.3447 23.6155L25.9677 22.9521L26.6758 22.6676C28.9878 21.7386 31.2975 21.0942 33.602 20.6482V14.4579C30.3665 15.6875 27.2087 17.0683 24.2078 19.04L23.7311 19.3532L23.3479 18.9308C15.9582 10.7836 8.38115 8.15872 0.696862 7.60633L0.688924 7.82332C8.52115 8.71498 15.8833 11.3596 21.322 19.9379L21.6491 20.4539L21.1636 20.8247C16.2148 24.6038 12.5283 29.158 10.5431 34.7983C8.59874 40.3225 8.2668 46.9441 10.0512 54.9871H10.1449C8.4854 46.8973 9.19565 40.7735 11.5148 35.9483C13.9075 30.9701 17.9698 27.4649 22.6825 24.6197L23.3782 24.1996L23.6541 24.9641C25.4066 29.8202 25.6647 35.4426 24.9282 41.553L30.5243 44.0241Z" fill="#DD1E3B" stroke="#2D2C2E"/>
<path d="M24.7235 15.593C26.988 15.593 28.8391 13.7442 28.8391 11.4797C28.8391 9.21721 26.9879 7.36715 24.7235 7.36715C22.4615 7.36715 20.6134 9.21637 20.6134 11.4797C20.6134 13.745 22.4614 15.593 24.7235 15.593Z" fill="#F7E700" stroke="#2D2C2E"/>
<path d="M44.7851 12.0794C47.9247 12.0794 50.4901 9.51482 50.4901 6.37093C50.4901 3.22967 47.9251 0.666661 44.7851 0.666661C41.6439 0.666661 39.0796 3.22965 39.0796 6.37093C39.0796 9.51483 41.6444 12.0794 44.7851 12.0794Z" fill="#DD1E3B" stroke="#2D2C2E"/>
<path d="M61.5985 24.098C57.6951 30.7538 56.5211 37.7251 55.8373 44.8478L62.0889 42.9627C62.054 37.0686 62.607 31.3625 64.4509 26.1434L64.69 25.4667L65.3472 25.7549C74.3755 29.714 80.9454 40.8886 76.5204 57.7048H77.0385C79.3673 49.9284 79.4053 43.2495 77.6891 37.4163C75.9375 31.4629 72.3419 26.3342 67.3787 21.7906L66.959 21.4064L67.2726 20.9315C72.2372 13.4138 79.9098 10.0019 89.3215 9.37502V9.37219C79.5549 9.63463 71.3781 12.4259 65.7455 19.541L65.4036 19.9728L64.9151 19.7187L55.0285 14.5758V20.8382L61.2542 23.1353L62.0014 23.411L61.5985 24.098Z" fill="#F7E700" stroke="#2D2C2E"/>
<path d="M64.1258 15.9891C66.4311 15.9891 68.3135 14.1066 68.3135 11.8031C68.3135 9.49865 66.4309 7.61549 64.1258 7.61549C61.8209 7.61549 59.9406 9.49819 59.9406 11.8031C59.9406 14.1071 61.8207 15.9891 64.1258 15.9891Z" fill="#F7E700" stroke="#2D2C2E"/>
<path fill-rule="evenodd" clip-rule="evenodd" d="M41.9556 72.4355C33.4194 72.4355 44.1525 61.316 44.1525 70.7867C43.7413 70.8966 42.3839 72.4355 41.9556 72.4355ZM45.3872 67.0753C45.3872 65.1218 41.1168 64.7366 39.7599 64.7366C36.0993 64.98 35.738 70.2008 36.0537 70.7867C36.5787 75.5288 42.4941 73.812 44.1525 72.7115C44.31 77.9856 41.5017 80.957 36.4639 80.957L36.4607 81.3537L36.1526 81.3613C45.5239 86.3299 46.1181 69.0149 45.3872 67.0753Z" fill="#2D2C2E"/>
<path fill-rule="evenodd" clip-rule="evenodd" d="M66.3939 63.3619V73.5354C66.3939 74.0109 66.4977 74.0668 66.5318 74.4969H67.2185C66.9567 71.8002 67.8019 60.1422 70.2861 65.3123C71.3407 67.5117 71.7487 69.8889 71.7487 72.2983L72.1596 72.7107H72.7109C73.0188 72.7107 73.0099 72.6022 73.1826 72.4302C73.3963 69.7674 73.3598 67.2948 75.8523 66.5875C77.9163 66.0048 77.5549 66.7134 78.2089 68.2601C79.0742 70.2964 80.6644 72.7202 81.3594 74.4969C81.7682 74.4647 82.0461 74.3992 82.0461 73.9486L81.7716 73.3968C81.7716 71.6177 78.691 64.1899 77.7911 64.1899C75.8548 64.1899 74.3036 65.7237 72.7673 65.5274C72.4238 60.7725 68.3357 63.3619 66.3939 63.3619Z" fill="#2D2C2E"/>
<path fill-rule="evenodd" clip-rule="evenodd" d="M86.3709 65.9748C86.8113 63.0439 90.6274 64.1599 90.6274 66.8001C88.6731 66.8001 88.1719 65.9748 86.3709 65.9748ZM88.5683 74.774C89.23 74.774 88.6039 74.4335 89.3916 74.2247V72.8489C83.8879 72.8489 84.8609 70.1841 84.8609 66.9367C86.3383 67.3334 89.4149 68.998 90.764 68.998H91.4507C91.8731 68.998 92 68.5976 92 68.1742V65.6993C88.3959 55.1102 74.2855 74.3172 88.5683 74.774Z" fill="#2D2C2E"/>
<path fill-rule="evenodd" clip-rule="evenodd" d="M6.32918 65.0126L5.05151 65.0079C5.13345 65.8303 5.09813 66.621 5.46489 67.3506C5.52132 69.283 4.56993 75.847 7.42629 74.7728V72.4355C7.42629 71.1735 7.01414 68.798 7.01414 67.0753C7.01414 66.0371 11.0704 65.6993 11.5456 65.6993C12.2146 68.2119 11.9977 71.2886 12.0966 73.9487H12.5083C13.0885 73.9487 12.5789 73.7581 13.1937 73.5353V65.424C13.1937 65.2103 11.6187 63.3618 10.998 63.3618L8.05114 63.4192C7.57472 63.8267 6.48718 64.4209 6.32918 65.0126Z" fill="#2D2C2E"/>
<path fill-rule="evenodd" clip-rule="evenodd" d="M18.9588 63.3619V63.2245C19.1281 61.6294 19.6457 59.6884 19.6457 58.1391V57.3163C19.6457 56.9993 19.5518 56.9019 19.2351 56.9019H18.41C18.0185 56.9019 17.8274 57.5457 17.5869 57.8634V63.0879C17.5869 63.4071 17.4915 63.5005 17.1753 63.5005C15.577 63.5005 14.6305 62.8141 13.1936 62.8141V63.5005L16.7619 64.3253C17.9979 67.744 16.2295 71.0876 17.1753 74.634H17.8575C18.6745 71.6629 18.6838 68.0931 18.6838 65.0152C21.2134 65.0152 23.582 65.8812 26.1759 65.7661L26.6128 65.4362L26.3731 64.3253C24.2977 64.3253 20.7247 64.4877 18.9588 63.3619Z" fill="#2D2C2E"/>
<path fill-rule="evenodd" clip-rule="evenodd" d="M29.5297 65.838C29.8476 65.0691 30.3138 64.0481 32.1383 64.3233C32.9226 64.3233 33.65 65.0544 33.65 65.838V66.6613C32.1375 66.6613 31.1717 65.838 29.5297 65.838ZM31.8652 73.8114V73.398H32.2762C32.2656 72.9591 32.3206 72.7109 31.8652 72.7109C30.6604 72.7109 29.5756 73.1691 28.2793 72.1768C25.8829 70.3471 26.5563 65.747 30.327 66.811C30.616 67.5182 33.1564 68.0374 33.925 68.0374H34.8857V66.6613C34.8857 64.8444 33.5133 63.5007 31.7249 63.5007C25.1153 62.9603 22.7263 74.7871 31.8652 73.8114Z" fill="#2D2C2E"/>
<path fill-rule="evenodd" clip-rule="evenodd" d="M1.52359 54.7031V59.5152C1.52359 60.3334 1.85675 60.4627 1.93157 61.0323C1.99658 61.5272 1.93599 62.5392 1.93599 63.0902V67.0755C1.93599 68.3429 1.80204 69.7928 2.01817 70.978C2.1585 71.752 1.95978 72.1725 2.20953 72.8488C2.33097 73.1749 2.47424 74.2094 2.48454 74.6356H3.16999V74.0863C3.16999 73.7499 3.58239 73.5672 3.58239 72.7107V64.7373C3.58239 62.8703 3.16999 61.5466 3.16999 59.2392C3.16999 56.6439 2.78948 55.7634 2.62242 53.7404H1.65975C1.62565 54.1725 1.52359 54.2282 1.52359 54.7031Z" fill="#2D2C2E"/>
<path fill-rule="evenodd" clip-rule="evenodd" d="M56.289 66.0986C53.0474 73.167 57.7072 74.0797 63.3044 70.5626C63.3044 71.7135 62.6785 73.8267 64.2707 73.8616C64.2469 72.2691 65.0089 63.4128 63.0296 63.4128C60.8037 63.1233 58.7405 63.2644 57.2651 64.9267C57.2651 64.9267 56.9236 65.0562 56.825 65.1757C56.6793 65.3489 56.289 66.0986 56.289 66.0986ZM62.9776 65.1122L63.3044 65.4755C64.7336 67.9879 57.9003 73.1992 56.8525 69.3254C57.2914 65.8123 59.689 64.8762 62.9776 65.1122Z" fill="#2D2C2E"/>
<path d="M3.40597 81.7721C3.51637 82.1673 3.59905 82.6705 3.65645 83.2814C3.71141 83.8949 3.76145 84.5625 3.8039 85.285C3.84756 86.0097 3.89786 86.755 3.95281 87.5199C4.00752 88.2861 4.09191 89.0189 4.20182 89.7181C4.31418 90.4153 4.45819 91.047 4.63801 91.61C4.81882 92.1733 5.05213 92.6117 5.34333 92.9262C5.63478 93.242 5.99321 93.4022 6.41836 93.4088C6.84646 93.4139 7.36091 93.2086 7.96761 92.7869C8.56008 92.4395 9.02816 91.9937 9.36647 91.4425C9.70723 90.8929 9.9398 90.2948 10.0632 89.6427C10.1856 88.9951 10.2114 88.3214 10.1378 87.6225C10.0632 86.923 9.89908 86.2452 9.64639 85.5828C9.39297 84.9219 9.06202 84.3122 8.65257 83.7551C8.24508 83.2007 7.77257 82.736 7.23432 82.3643C6.6973 81.9941 6.10778 81.7451 5.46477 81.6232C4.82152 81.5 4.13509 81.5494 3.40597 81.7721ZM3.49748 93.4358C3.17487 90.9886 2.92905 88.9553 2.75683 87.3364C2.58093 85.715 2.45729 84.4207 2.37388 83.4484C2.29562 82.4794 2.25121 81.7856 2.24557 81.3632C2.23895 80.9429 2.24827 80.701 2.2728 80.6399C3.53453 80.1819 4.72265 80.0546 5.83399 80.2499C6.94729 80.4486 7.90799 80.9429 8.71758 81.7324C9.52814 82.5255 10.1559 83.5895 10.6017 84.9239C11.0457 86.2599 11.231 87.8298 11.1569 89.6351C11.1937 90.2166 11.0703 90.7953 10.7862 91.3767C10.5021 91.9584 10.1211 92.4922 9.64639 92.9723C9.16972 93.4549 8.63098 93.8644 8.03311 94.197C7.43427 94.5307 6.84155 94.7409 6.26258 94.8258C5.68041 94.9129 5.14339 94.8552 4.64783 94.6511C4.15423 94.4473 3.77053 94.0417 3.49748 93.4358Z" fill="#2D2C2E"/>
<path d="M13.0871 88.838C13.0871 89.2823 13.1271 89.757 13.2076 90.2658C13.2873 90.7724 13.4328 91.2422 13.643 91.6747C13.8528 92.1057 14.1459 92.4679 14.5235 92.7515C14.9008 93.0346 15.3856 93.1776 15.9798 93.1776C16.9182 93.0787 17.6554 92.828 18.1875 92.4254C18.7174 92.025 19.0743 91.5496 19.2525 90.9964C19.4325 90.4476 19.462 89.8598 19.3464 89.2359C19.2269 88.6108 18.9931 88.0333 18.6411 87.5019C18.2876 86.9691 17.8443 86.5194 17.3068 86.1482C16.7683 85.7765 16.1711 85.5675 15.5154 85.5175C15.1079 85.5305 14.7602 85.6175 14.4774 85.7765C14.1938 85.9399 13.9521 86.1624 13.7542 86.4536C13.5569 86.7453 13.4048 87.0925 13.3005 87.4923C13.1953 87.8925 13.1237 88.3436 13.0871 88.838ZM11.8433 88.6339C11.8433 88.089 11.9341 87.5635 12.1127 87.0557C12.2927 86.5508 12.5457 86.1021 12.8727 85.7113C13.2 85.3229 13.5932 85.0091 14.0505 84.7753C14.5068 84.5418 15.0218 84.4233 15.5912 84.4233C16.2209 84.4488 16.8114 84.6014 17.3615 84.8867C17.9122 85.1703 18.4007 85.54 18.8271 85.9904C19.2525 86.4404 19.606 86.9551 19.8847 87.5287C20.1614 88.1052 20.3496 88.6942 20.4499 89.3014C20.5478 89.9059 20.5407 90.5028 20.431 91.0908C20.3194 91.6779 20.0871 92.2098 19.735 92.685C19.383 93.1604 18.8943 93.5601 18.2714 93.8824C17.6451 94.2038 16.8703 94.3964 15.9427 94.456C15.2502 94.456 14.6476 94.261 14.1349 93.8721C13.6222 93.4838 13.1953 92.998 12.8545 92.4166C12.5138 91.8359 12.2606 91.2047 12.0938 90.5253C11.9272 89.8455 11.8433 89.2153 11.8433 88.6339Z" fill="#2D2C2E"/>
<path d="M26.6629 85.072C26.4026 87.1625 26.1156 88.8084 25.8001 90.0156C25.4834 91.2207 25.1566 92.0595 24.8178 92.5386C24.4751 93.0133 24.1361 93.1558 23.797 92.9633C23.4562 92.7734 23.1385 92.3333 22.8415 91.6463C22.5446 90.9616 22.2755 90.0586 22.0351 88.9394C21.7939 87.8199 21.5979 86.5621 21.4497 85.1657C21.4497 85.0048 21.4971 84.8789 21.59 84.7914C21.6825 84.707 21.7897 84.6599 21.9136 84.6466C22.0375 84.6344 22.1567 84.6638 22.2755 84.7384C22.3942 84.8127 22.4771 84.9238 22.5262 85.072C22.7858 86.568 23.0056 87.7701 23.1839 88.6801C23.364 89.5875 23.5151 90.2487 23.6393 90.6542C23.7619 91.0637 23.8765 91.2511 23.982 91.2207C24.087 91.1895 24.1976 90.9842 24.3166 90.6079C24.4341 90.2318 24.5666 89.707 24.7143 89.0319C24.8622 88.358 25.0551 87.5871 25.2889 86.7231C25.4378 86.24 25.5428 85.767 25.6051 85.3036C25.6664 84.8404 25.741 84.4275 25.8271 84.0716C25.9139 83.7122 26.044 83.4381 26.2177 83.2456C26.3901 83.0542 26.6629 82.9951 27.0326 83.0684C27.2804 83.143 27.4809 83.3169 27.6352 83.5895C27.789 83.8616 27.9225 84.2031 28.0341 84.6174C28.1455 85.0323 28.234 85.4982 28.3039 86.0175C28.3707 86.5366 28.4425 87.0717 28.5169 87.6225C28.5907 88.1717 28.6712 88.7245 28.7585 89.2738C28.8444 89.8243 28.9545 90.3385 29.0914 90.8198C29.2889 91.3409 29.469 91.6272 29.6297 91.6841C29.7904 91.74 29.9364 91.6316 30.0644 91.3603C30.1947 91.0867 30.3161 90.6952 30.4273 90.1812C30.5389 89.669 30.6439 89.1018 30.7413 88.4855C30.8414 87.8663 30.9385 87.2336 31.0389 86.584C31.1385 85.9346 31.2395 85.3441 31.3445 84.8127C31.4498 84.2799 31.5609 83.8422 31.6787 83.4946C31.795 83.1491 31.9292 82.9696 32.0771 82.958C32.3494 82.958 32.5069 83.0314 32.5501 83.1813C32.593 83.3302 32.6215 83.5203 32.6328 83.7551C32.5849 84.497 32.5243 85.271 32.4586 86.0732C32.3899 86.8767 32.2969 87.659 32.1789 88.4208C32.0619 89.1793 31.9211 89.8917 31.7537 90.5541C31.585 91.2138 31.3875 91.7702 31.1601 92.2216C30.9312 92.6721 30.6584 92.9915 30.3438 93.1777C30.0279 93.3624 29.6726 93.3624 29.2769 93.1777C28.9545 92.953 28.6903 92.6559 28.4801 92.2773C28.2696 91.8993 28.0932 91.4788 27.9514 91.0077C27.8096 90.5372 27.6916 90.0367 27.5996 89.5046C27.5064 88.9727 27.4178 88.4426 27.3388 87.9088C27.2588 87.3786 27.1752 86.8676 27.0891 86.3786C27.0005 85.8917 26.8908 85.4557 26.7542 85.072H26.6629Z" fill="#2D2C2E"/>
<path d="M37.7885 86.0175C37.5792 86.0175 37.3746 86.1045 37.1778 86.2768C36.9799 86.4519 36.7976 86.6766 36.6293 86.9551C36.4639 87.2335 36.3108 87.5429 36.1764 87.8819C36.0388 88.2225 35.9257 88.5556 35.8332 88.8844C35.7414 89.2116 35.6686 89.5171 35.62 89.8007C35.5704 90.0862 35.5452 90.3026 35.5452 90.45C35.5452 90.7466 35.5704 91.0381 35.62 91.3229C35.6686 91.608 35.7225 91.8901 35.7775 92.1764C35.8332 92.4603 35.8859 92.7451 35.9352 93.0287C35.9853 93.3123 36.0086 93.5986 36.0086 93.8824C36.0086 94.1045 35.9637 94.2688 35.8715 94.3741C35.7775 94.4771 35.6686 94.5375 35.5452 94.549C35.4225 94.5608 35.2984 94.5269 35.175 94.4472C35.0501 94.3674 34.964 94.247 34.9137 94.0838C34.6684 92.9492 34.4606 91.9878 34.2933 91.2005C34.1264 90.4155 33.9878 89.7609 33.8765 89.2359C33.7656 88.7104 33.6792 88.299 33.6169 88.0039C33.5546 87.7053 33.5116 87.485 33.4864 87.3452C33.4616 87.2029 33.4461 87.1104 33.4407 87.0652C33.4336 87.0218 33.4314 86.9948 33.4314 86.9845C33.4314 86.7721 33.4687 86.6276 33.5418 86.5461C33.6169 86.4659 33.7584 86.4269 33.968 86.4269C34.1407 86.4269 34.2636 86.4809 34.3308 86.5937C34.397 86.7049 34.4464 86.8432 34.4797 87.0096C34.5109 87.1771 34.541 87.3567 34.5705 87.5481C34.6024 87.7399 34.6684 87.9151 34.7663 88.0758C34.8281 87.8299 34.9566 87.5171 35.1553 87.1398C35.3543 86.7625 35.5898 86.3967 35.8597 86.0366C36.1332 85.6784 36.4288 85.3725 36.7519 85.1183C37.0728 84.8654 37.3827 84.7383 37.679 84.7383C38.3586 84.5896 38.942 84.726 39.4322 85.1458C39.9206 85.5675 40.3283 86.1811 40.6551 86.9904C40.9846 87.8022 41.2294 88.7622 41.3975 89.874C41.5641 90.9888 41.6588 92.1637 41.6818 93.3999C41.6818 93.6231 41.6499 93.8118 41.583 93.9646C41.5138 94.1192 41.4205 94.2256 41.3045 94.2816C41.186 94.3353 41.0555 94.3324 40.9147 94.2718C40.7724 94.2097 40.6269 94.0696 40.4765 93.8451C40.4164 93.7836 40.3777 93.6192 40.3573 93.3535C40.3411 93.0878 40.3202 92.7581 40.3014 92.3614C40.2837 91.9647 40.2621 91.5251 40.2373 91.0445C40.2121 90.5617 40.1721 90.0779 40.1176 89.5877C40.0607 89.0998 39.9783 88.6307 39.8666 88.1783C39.7553 87.7279 39.6103 87.3324 39.4322 86.9904C39.2521 86.6529 39.0283 86.3916 38.7624 86.214C38.497 86.0334 38.1707 85.9694 37.7885 86.0175Z" fill="#2D2C2E"/>
<path fill-rule="evenodd" clip-rule="evenodd" d="M52.1824 79.8236L52.3445 78.7356C53.306 78.7552 54.881 82.8311 55.1204 83.7128L54.3925 83.7037L52.2084 83.7128L52.1824 79.8236ZM55.1749 80.1227C54.0564 78.0683 52.632 75.6766 52.5185 75.6766H51.5482V76.0416H51.1844C51.1844 82.1373 50.0939 87.9484 50.0939 93.7717C50.0939 94.6331 50.4386 93.9955 50.4565 94.8644H51.6708L51.6041 90.6028L52.0327 85.5142L55.9143 85.2709C56.6459 87.693 58.7206 90.2307 58.2187 93.5281C61.1241 92.4151 59.1772 88.6763 57.8934 85.083C57.4096 83.7263 56.1223 81.862 55.1749 80.1227Z" fill="#2D2C2E"/>
<path fill-rule="evenodd" clip-rule="evenodd" d="M69.828 90.1293C71.6699 89.3124 72.1596 88.2167 72.1596 86.3616H71.8083C72.4675 90.1543 63.3268 92.6258 62.2263 84.4276C61.992 82.6878 62.7002 80.6815 63.8857 79.4141C64.957 78.2692 66.9155 77.0781 68.5842 77.4809C70.2321 77.8779 69.7542 80.2548 71.691 80.2548H72.0409C72.1029 79.9904 72.1596 79.984 72.1596 79.667C72.1596 79.3871 71.6096 78.4502 71.3964 78.1897C69.2721 75.5737 66.6807 75.6765 64.182 77.6652C63.3631 78.3168 61.9449 80.3248 61.5965 81.3247C60.8007 83.6102 61.4091 87.1321 62.8749 89.1102C64.3626 91.1175 67.8379 91.0098 69.828 90.1293Z" fill="#2D2C2E"/>
<path fill-rule="evenodd" clip-rule="evenodd" d="M55.9289 63.4223V62.7357C56.3322 59.7988 47.5536 60.8667 47.5536 66.4465V72.6324L47.3395 72.6344L47.2798 73.8679H49.3379V65.7566C50.5901 64.0629 52.0873 63.3338 54.2803 64.1105H55.3791" fill="#2D2C2E"/>
<path d="M31.3533 61.1447C31.3533 61.1447 31.6099 59.8093 31.8667 59.7235C32.1236 59.6376 33.4314 57.8401 33.4314 57.8401L34.8858 58.9529C34.8858 58.9529 33.8833 59.5522 33.4314 60.0659C32.9796 60.5794 31.7814 61.1447 31.7814 61.1447H31.3533Z" fill="#2D2C2E"/>
</svg>
